<svg width="32" height="32" viewBox="0 0 32 32" fill="none" xmlns="http://www.w3.org/2000/svg">
  <!-- Goose Body -->
  <path d="M8 16 Q12 14 16 16 Q20 18 24 16 L22 24 Q18 26 14 24 Q10 26 6 24 Z" fill="#0B2545"/>
  
  <!-- Goose Neck and Head -->
  <path d="M24 16 Q26 12 28 10 Q30 8 32 6 L32 8 Q30 10 28 12 Q26 14 24 16" fill="#0B2545"/>
  
  <!-- Goose Beak -->
  <path d="M32 6 L36 5 L36 7 L32 8 Z" fill="#D95D39"/>
  
  <!-- Goose Wing -->
  <path d="M16 14 Q18 12 20 14 Q22 16 24 14 L22 18 Q20 20 18 18 Q16 20 14 18 Z" fill="#0B2545"/>
  
  <!-- Film Strip Detail -->
  <circle cx="18" cy="16" r="0.5" fill="#F7F7F7"/>
  <rect x="17.5" y="15" width="0.5" height="2" fill="#F7F7F7"/>
  
  <!-- Goose Legs -->
  <rect x="9" y="24" width="1" height="4" fill="#0B2545"/>
  <rect x="15" y="24" width="1" height="4" fill="#0B2545"/>
  <rect x="21" y="24" width="1" height="4" fill="#0B2545"/>
</svg> 